<svg width="20" height="20" viewBox="0 0 20 20" fill="none" xmlns="http://www.w3.org/2000/svg">
    <g clip-path="url(#clip0_11_24)">
        <path fill-rule="evenodd" clip-rule="evenodd" d="M11 7C11 6.44772 10.5523 6 10 6C9.4477 6 9 6.44772 9 7V9H7C6.44772 9 6 9.4477 6 10C6 10.5523 6.44772 11 7 11H9V13C9 13.5523 9.4477 14 10 14C10.5523 14 11 13.5523 11 13V11H13C13.5523 11 14 10.5523 14 10C14 9.4477 13.5523 9 13 9H11V7ZM0 10C0 4.47715 4.47715 0 10 0C15.5228 0 20 4.47715 20 10C20 15.5228 15.5228 20 10 20C4.47715 20 0 15.5228 0 10Z" fill="currentColor"/>
    </g>
    <defs>
        <clipPath id="clip0_11_24">
            <rect width="20" height="20" fill="white"/>
        </clipPath>
    </defs>
</svg>
