<svg width="20" height="20" viewBox="0 0 20 20" fill="none" xmlns="http://www.w3.org/2000/svg">
    <g clip-path="url(#clip0_13_2)">
        <path fill-rule="evenodd" clip-rule="evenodd" d="M10 20C15.5229 20 20 15.5229 20 10C20 7.96289 19.3909 6.06804 18.3448 4.48768L10.3944 13.3214C9.62489 14.1766 8.32978 14.3029 7.40938 13.6126L3.77778 10.8889C3.28686 10.5207 3.18737 9.82422 3.55556 9.33333C3.92374 8.84244 4.62019 8.74289 5.11111 9.11111L8.74267 11.8348L16.9044 2.76617C15.1096 1.05241 12.6777 0 10 0C4.47716 0 0 4.47716 0 10C0 15.5229 4.47716 20 10 20Z" fill="#2A5885"/>
    </g>
    <defs>
        <clipPath id="clip0_13_2">
            <rect width="20" height="20" fill="white"/>
        </clipPath>
    </defs>
</svg>
