<svg width="30" height="30" viewBox="0 0 30 30" fill="none" xmlns="http://www.w3.org/2000/svg">
    <g clip-path="url(#clip0_10_18)">
        <path d="M30.0013 15.0006C30.0013 17.9675 29.1215 20.8677 27.4732 23.3345C25.8249 25.8014 23.4821 27.724 20.7411 28.8594C18.0001 29.9948 14.984 30.2918 12.0742 29.713C9.16432 29.1342 6.49147 27.7056 4.39359 25.6077C2.29571 23.5098 0.867042 20.8369 0.28824 17.9271C-0.290563 15.0173 0.00649953 12.0011 1.14186 9.26014C2.27722 6.51913 4.19989 4.17635 6.66673 2.52806C9.13358 0.879772 12.0338 0 15.0006 0C16.9705 0 18.9212 0.388003 20.7411 1.14186C22.5611 1.89571 24.2148 3.00065 25.6077 4.39358C27.0006 5.78652 28.1056 7.44018 28.8594 9.26014C29.6133 11.0801 30.0013 13.0307 30.0013 15.0006ZM24.7206 15.1143C24.7196 13.4291 24.2759 11.7738 23.4338 10.3141C22.5917 8.85438 21.3809 7.64155 19.9226 6.79707C18.4643 5.95259 16.8097 5.50611 15.1245 5.50234C13.4393 5.49856 11.7827 5.93764 10.3206 6.77558C9.43315 7.28711 8.63245 7.93623 7.94843 8.69874V7.39705C7.94843 7.19806 7.86938 7.00721 7.72867 6.8665C7.58795 6.72579 7.39711 6.64674 7.19811 6.64674C6.99912 6.64674 6.80827 6.72579 6.66756 6.8665C6.52685 7.00721 6.4478 7.19806 6.4478 7.39705V10.5423C6.4483 10.741 6.52757 10.9313 6.66823 11.0716C6.80889 11.2119 6.99944 11.2907 7.19811 11.2907H10.3396C10.5318 11.2811 10.713 11.1979 10.8456 11.0584C10.9782 10.919 11.0522 10.7338 11.0522 10.5414C11.0522 10.3489 10.9782 10.1638 10.8456 10.0243C10.713 9.88484 10.5318 9.80167 10.3396 9.792H8.98106C9.74206 8.91437 10.683 8.21073 11.7399 7.72885C12.7969 7.24696 13.9451 6.9981 15.1067 6.99916C16.7112 6.99953 18.2796 7.47564 19.6135 8.36728C20.9474 9.25892 21.9871 10.5261 22.6009 12.0085C23.2147 13.4909 23.3752 15.1221 23.0621 16.6957C22.749 18.2693 21.9763 19.7148 20.8418 20.8494C19.7072 21.9839 18.2618 22.7566 16.6881 23.0697C15.1145 23.3828 13.4833 23.2223 12.0009 22.6085C10.5185 21.9946 9.25135 20.955 8.35971 19.6211C7.46807 18.2872 6.99196 16.7188 6.99159 15.1143C6.99159 14.9153 6.91254 14.7245 6.77182 14.5838C6.63111 14.4431 6.44027 14.364 6.24127 14.364C6.04227 14.364 5.85143 14.4431 5.71072 14.5838C5.57001 14.7245 5.49095 14.9153 5.49095 15.1143C5.49095 16.3771 5.73967 17.6275 6.22291 18.7941C6.70615 19.9608 7.41445 21.0208 8.30735 21.9137C9.20026 22.8066 10.2603 23.5149 11.4269 23.9981C12.5936 24.4814 13.844 24.7301 15.1067 24.7301C16.3695 24.7301 17.6199 24.4814 18.7865 23.9981C19.9532 23.5149 21.0132 22.8066 21.9061 21.9137C22.799 21.0208 23.5073 19.9608 23.9906 18.7941C24.4738 17.6275 24.7206 16.3771 24.7206 15.1143ZM15.696 14.9267V9.864C15.6863 9.67177 15.6032 9.49061 15.4637 9.35798C15.3242 9.22534 15.1391 9.15138 14.9466 9.15138C14.7542 9.15138 14.5691 9.22534 14.4296 9.35798C14.2901 9.49061 14.2069 9.67177 14.1973 9.864V15.2469C14.197 15.3614 14.223 15.4743 14.2733 15.5772C14.3236 15.68 14.3967 15.7699 14.4872 15.84L17.3994 18.7503C17.4688 18.8211 17.5516 18.8775 17.6429 18.9162C17.7342 18.9548 17.8323 18.975 17.9315 18.9755C18.0306 18.976 18.1289 18.9568 18.2206 18.9191C18.3124 18.8814 18.3957 18.8258 18.4658 18.7557C18.5359 18.6856 18.5915 18.6022 18.6292 18.5105C18.6669 18.4188 18.6861 18.3205 18.6856 18.2214C18.6851 18.1222 18.6649 18.0241 18.6263 17.9328C18.5876 17.8414 18.5313 17.7587 18.4604 17.6893L15.696 14.9267Z" fill="currentColor"/>
    </g>
    <defs>
        <clipPath id="clip0_10_18">
            <rect width="30" height="30" fill="white"/>
        </clipPath>
    </defs>
</svg>
